<mxfile host="app.diagrams.net" agent="Mozilla/5.0 (Windows NT 10.0; Win64; x64) AppleWebKit/537.36 (KHTML, like Gecko) Chrome/135.0.0.0 Safari/537.36" version="27.0.6">
  <diagram name="Page-1" id="vjrcZOODtd98cVLdUV8J">
    <mxGraphModel dx="898" dy="750" grid="1" gridSize="10" guides="1" tooltips="1" connect="1" arrows="1" fold="1" page="1" pageScale="1" pageWidth="827" pageHeight="1169" math="0" shadow="0">
      <root>
        <mxCell id="0" />
        <mxCell id="1" parent="0" />
        <mxCell id="hf9ZZcilC1nNbk6GuqIq-1" value="" style="rounded=0;whiteSpace=wrap;html=1;" parent="1" vertex="1">
          <mxGeometry x="160" y="120" width="520" height="610" as="geometry" />
        </mxCell>
        <mxCell id="hf9ZZcilC1nNbk6GuqIq-13" style="rounded=0;orthogonalLoop=1;jettySize=auto;html=1;entryX=0;entryY=0.5;entryDx=0;entryDy=0;endArrow=none;startFill=0;" parent="1" source="hf9ZZcilC1nNbk6GuqIq-3" target="hf9ZZcilC1nNbk6GuqIq-7" edge="1">
          <mxGeometry relative="1" as="geometry" />
        </mxCell>
        <mxCell id="hf9ZZcilC1nNbk6GuqIq-27" style="rounded=0;orthogonalLoop=1;jettySize=auto;html=1;entryX=0;entryY=0.5;entryDx=0;entryDy=0;endArrow=none;startFill=0;" parent="1" source="hf9ZZcilC1nNbk6GuqIq-3" target="hf9ZZcilC1nNbk6GuqIq-8" edge="1">
          <mxGeometry relative="1" as="geometry" />
        </mxCell>
        <mxCell id="hf9ZZcilC1nNbk6GuqIq-3" value="Caissier" style="shape=umlActor;verticalLabelPosition=bottom;verticalAlign=top;html=1;outlineConnect=0;" parent="1" vertex="1">
          <mxGeometry x="60" y="329" width="30" height="60" as="geometry" />
        </mxCell>
        <mxCell id="hf9ZZcilC1nNbk6GuqIq-7" value="Enregistrer les articles" style="ellipse;whiteSpace=wrap;html=1;" parent="1" vertex="1">
          <mxGeometry x="250" y="230" width="140" height="80" as="geometry" />
        </mxCell>
        <mxCell id="hf9ZZcilC1nNbk6GuqIq-8" value="Prendre le payement" style="ellipse;whiteSpace=wrap;html=1;" parent="1" vertex="1">
          <mxGeometry x="250" y="360" width="140" height="70" as="geometry" />
        </mxCell>
        <mxCell id="hf9ZZcilC1nNbk6GuqIq-26" value="&lt;b&gt;&lt;font style=&quot;color: light-dark(rgb(255, 0, 0), rgb(237, 237, 237)); font-size: 15px;&quot;&gt;Logiciel de caisse&lt;/font&gt;&lt;/b&gt;" style="text;html=1;align=center;verticalAlign=middle;whiteSpace=wrap;rounded=0;fillColor=#f8cecc;strokeColor=#b85450;" parent="1" vertex="1">
          <mxGeometry x="170" y="130" width="160" height="30" as="geometry" />
        </mxCell>
        <mxCell id="hf9ZZcilC1nNbk6GuqIq-28" value="&lt;div&gt;Le système est soumis à l&#39;authentification.&lt;/div&gt;" style="shape=note;whiteSpace=wrap;html=1;backgroundOutline=1;darkOpacity=0.05;fillColor=#dae8fc;strokeColor=#6c8ebf;" parent="1" vertex="1">
          <mxGeometry x="530" y="130" width="140" height="100" as="geometry" />
        </mxCell>
        <mxCell id="hf9ZZcilC1nNbk6GuqIq-31" style="edgeStyle=orthogonalEdgeStyle;rounded=0;orthogonalLoop=1;jettySize=auto;html=1;entryX=0.5;entryY=1;entryDx=0;entryDy=0;endArrow=block;endFill=0;" parent="1" source="hf9ZZcilC1nNbk6GuqIq-29" target="hf9ZZcilC1nNbk6GuqIq-8" edge="1">
          <mxGeometry relative="1" as="geometry" />
        </mxCell>
        <mxCell id="hf9ZZcilC1nNbk6GuqIq-29" value="Payer en espèce" style="ellipse;whiteSpace=wrap;html=1;" parent="1" vertex="1">
          <mxGeometry x="170" y="490" width="140" height="70" as="geometry" />
        </mxCell>
        <mxCell id="hf9ZZcilC1nNbk6GuqIq-32" style="edgeStyle=orthogonalEdgeStyle;rounded=0;orthogonalLoop=1;jettySize=auto;html=1;entryX=0.5;entryY=1;entryDx=0;entryDy=0;endArrow=block;endFill=0;" parent="1" source="hf9ZZcilC1nNbk6GuqIq-30" target="hf9ZZcilC1nNbk6GuqIq-8" edge="1">
          <mxGeometry relative="1" as="geometry" />
        </mxCell>
        <mxCell id="hf9ZZcilC1nNbk6GuqIq-39" style="rounded=0;orthogonalLoop=1;jettySize=auto;html=1;entryX=0;entryY=0.5;entryDx=0;entryDy=0;dashed=1;dashPattern=8 8;" parent="1" source="hf9ZZcilC1nNbk6GuqIq-30" target="hf9ZZcilC1nNbk6GuqIq-36" edge="1">
          <mxGeometry relative="1" as="geometry" />
        </mxCell>
        <mxCell id="hf9ZZcilC1nNbk6GuqIq-40" value="&lt;b&gt;&amp;lt;&amp;lt;includes&amp;gt;&amp;gt;&lt;/b&gt;" style="edgeLabel;html=1;align=center;verticalAlign=middle;resizable=0;points=[];" parent="hf9ZZcilC1nNbk6GuqIq-39" vertex="1" connectable="0">
          <mxGeometry x="-0.1107" y="-1" relative="1" as="geometry">
            <mxPoint as="offset" />
          </mxGeometry>
        </mxCell>
        <mxCell id="hf9ZZcilC1nNbk6GuqIq-30" value="Payer par CB" style="ellipse;whiteSpace=wrap;html=1;" parent="1" vertex="1">
          <mxGeometry x="320" y="490" width="140" height="70" as="geometry" />
        </mxCell>
        <mxCell id="hf9ZZcilC1nNbk6GuqIq-33" value="Banque&lt;div&gt;&amp;lt;&amp;lt;secondary&amp;gt;&amp;gt;&lt;/div&gt;" style="shape=umlActor;verticalLabelPosition=bottom;verticalAlign=top;html=1;" parent="1" vertex="1">
          <mxGeometry x="733" y="424" width="30" height="60" as="geometry" />
        </mxCell>
        <mxCell id="hf9ZZcilC1nNbk6GuqIq-35" style="edgeStyle=orthogonalEdgeStyle;rounded=0;orthogonalLoop=1;jettySize=auto;html=1;entryX=0.5;entryY=1;entryDx=0;entryDy=0;endArrow=block;endFill=0;" parent="1" source="hf9ZZcilC1nNbk6GuqIq-34" target="hf9ZZcilC1nNbk6GuqIq-8" edge="1">
          <mxGeometry relative="1" as="geometry">
            <Array as="points">
              <mxPoint x="540" y="460" />
              <mxPoint x="320" y="460" />
            </Array>
          </mxGeometry>
        </mxCell>
        <mxCell id="hf9ZZcilC1nNbk6GuqIq-37" style="edgeStyle=orthogonalEdgeStyle;rounded=0;orthogonalLoop=1;jettySize=auto;html=1;dashed=1;dashPattern=8 8;" parent="1" source="hf9ZZcilC1nNbk6GuqIq-34" target="hf9ZZcilC1nNbk6GuqIq-36" edge="1">
          <mxGeometry relative="1" as="geometry" />
        </mxCell>
        <mxCell id="hf9ZZcilC1nNbk6GuqIq-38" value="&lt;b&gt;&amp;lt;&amp;lt;includes&amp;gt;&amp;gt;&lt;/b&gt;" style="edgeLabel;html=1;align=center;verticalAlign=middle;resizable=0;points=[];" parent="hf9ZZcilC1nNbk6GuqIq-37" vertex="1" connectable="0">
          <mxGeometry x="-0.0667" y="3" relative="1" as="geometry">
            <mxPoint as="offset" />
          </mxGeometry>
        </mxCell>
        <mxCell id="hf9ZZcilC1nNbk6GuqIq-34" value="Payer par Chèque" style="ellipse;whiteSpace=wrap;html=1;" parent="1" vertex="1">
          <mxGeometry x="470" y="490" width="140" height="70" as="geometry" />
        </mxCell>
        <mxCell id="hf9ZZcilC1nNbk6GuqIq-36" value="Vérifier" style="ellipse;whiteSpace=wrap;html=1;" parent="1" vertex="1">
          <mxGeometry x="470" y="620" width="140" height="70" as="geometry" />
        </mxCell>
        <mxCell id="hf9ZZcilC1nNbk6GuqIq-41" style="rounded=0;orthogonalLoop=1;jettySize=auto;html=1;entryX=0.5;entryY=0.5;entryDx=0;entryDy=0;entryPerimeter=0;endArrow=none;startFill=0;" parent="1" source="hf9ZZcilC1nNbk6GuqIq-36" target="hf9ZZcilC1nNbk6GuqIq-33" edge="1">
          <mxGeometry relative="1" as="geometry" />
        </mxCell>
        <mxCell id="YXZQfv7eEeNXigtHLJf2-1" value="Pour prendre le payement, il faut enregistrer tous les articles." style="shape=note;whiteSpace=wrap;html=1;backgroundOutline=1;darkOpacity=0.05;fillColor=#dae8fc;strokeColor=#6c8ebf;" vertex="1" parent="1">
          <mxGeometry x="530" y="240" width="140" height="100" as="geometry" />
        </mxCell>
      </root>
    </mxGraphModel>
  </diagram>
</mxfile>
